<mxfile host="app.diagrams.net" modified="2024-01-02T14:48:06.608Z" agent="Mozilla/5.0 (Windows NT 10.0; Win64; x64) AppleWebKit/537.36 (KHTML, like Gecko) Chrome/120.0.0.0 Safari/537.36" etag="Mp7Vvev4sit0G_KBBDQH" version="22.1.16" type="github">
  <diagram name="Halaman-1" id="xVsIUvH3QBJDIv3Bnuuh">
    <mxGraphModel dx="1400" dy="759" grid="1" gridSize="10" guides="1" tooltips="1" connect="1" arrows="1" fold="1" page="1" pageScale="1" pageWidth="827" pageHeight="1169" math="0" shadow="0">
      <root>
        <mxCell id="0" />
        <mxCell id="1" parent="0" />
        <mxCell id="OHqKvSYNsAmwV80baFoG-1" value="Client" style="shape=umlActor;verticalLabelPosition=bottom;verticalAlign=top;html=1;outlineConnect=0;" vertex="1" parent="1">
          <mxGeometry x="10" y="490" width="30" height="60" as="geometry" />
        </mxCell>
        <mxCell id="OHqKvSYNsAmwV80baFoG-11" value="Review The Report" style="ellipse;whiteSpace=wrap;html=1;" vertex="1" parent="1">
          <mxGeometry x="294" y="100" width="120" height="80" as="geometry" />
        </mxCell>
        <mxCell id="OHqKvSYNsAmwV80baFoG-12" value="Report&amp;nbsp; Ilegal&amp;nbsp; Levies" style="ellipse;whiteSpace=wrap;html=1;" vertex="1" parent="1">
          <mxGeometry x="330" y="570" width="120" height="80" as="geometry" />
        </mxCell>
        <mxCell id="OHqKvSYNsAmwV80baFoG-13" value="Manage Data" style="ellipse;whiteSpace=wrap;html=1;" vertex="1" parent="1">
          <mxGeometry x="130" y="200" width="120" height="80" as="geometry" />
        </mxCell>
        <mxCell id="OHqKvSYNsAmwV80baFoG-14" value="access information and statistics" style="ellipse;whiteSpace=wrap;html=1;" vertex="1" parent="1">
          <mxGeometry x="150" y="320" width="120" height="80" as="geometry" />
        </mxCell>
        <mxCell id="OHqKvSYNsAmwV80baFoG-15" value="General" style="shape=umlActor;verticalLabelPosition=bottom;verticalAlign=top;html=1;outlineConnect=0;" vertex="1" parent="1">
          <mxGeometry x="10" y="330" width="30" height="60" as="geometry" />
        </mxCell>
        <mxCell id="OHqKvSYNsAmwV80baFoG-18" value="" style="endArrow=none;html=1;rounded=0;" edge="1" parent="1" source="OHqKvSYNsAmwV80baFoG-15" target="OHqKvSYNsAmwV80baFoG-14">
          <mxGeometry width="50" height="50" relative="1" as="geometry">
            <mxPoint x="110" y="235" as="sourcePoint" />
            <mxPoint x="160" y="185" as="targetPoint" />
          </mxGeometry>
        </mxCell>
        <mxCell id="OHqKvSYNsAmwV80baFoG-20" value="authorities&amp;nbsp;" style="shape=umlActor;verticalLabelPosition=bottom;verticalAlign=top;html=1;outlineConnect=0;" vertex="1" parent="1">
          <mxGeometry x="490" y="200" width="30" height="60" as="geometry" />
        </mxCell>
        <mxCell id="OHqKvSYNsAmwV80baFoG-21" value="Admin" style="shape=umlActor;verticalLabelPosition=bottom;verticalAlign=top;html=1;outlineConnect=0;" vertex="1" parent="1">
          <mxGeometry x="10" y="210" width="30" height="60" as="geometry" />
        </mxCell>
        <mxCell id="OHqKvSYNsAmwV80baFoG-24" value="" style="endArrow=none;html=1;rounded=0;entryX=0;entryY=0.5;entryDx=0;entryDy=0;" edge="1" parent="1" source="OHqKvSYNsAmwV80baFoG-21" target="OHqKvSYNsAmwV80baFoG-13">
          <mxGeometry width="50" height="50" relative="1" as="geometry">
            <mxPoint x="-10" y="400" as="sourcePoint" />
            <mxPoint x="40" y="350" as="targetPoint" />
          </mxGeometry>
        </mxCell>
        <mxCell id="OHqKvSYNsAmwV80baFoG-25" value="" style="endArrow=none;html=1;rounded=0;entryX=1;entryY=0.5;entryDx=0;entryDy=0;" edge="1" parent="1" target="OHqKvSYNsAmwV80baFoG-13">
          <mxGeometry width="50" height="50" relative="1" as="geometry">
            <mxPoint x="490" y="240" as="sourcePoint" />
            <mxPoint x="40" y="350" as="targetPoint" />
          </mxGeometry>
        </mxCell>
        <mxCell id="OHqKvSYNsAmwV80baFoG-26" value="" style="endArrow=none;dashed=1;html=1;rounded=0;entryX=1;entryY=0;entryDx=0;entryDy=0;exitX=0;exitY=1;exitDx=0;exitDy=0;" edge="1" parent="1" source="OHqKvSYNsAmwV80baFoG-11" target="OHqKvSYNsAmwV80baFoG-13">
          <mxGeometry width="50" height="50" relative="1" as="geometry">
            <mxPoint x="-10" y="400" as="sourcePoint" />
            <mxPoint x="40" y="350" as="targetPoint" />
          </mxGeometry>
        </mxCell>
        <mxCell id="OHqKvSYNsAmwV80baFoG-27" value="Include" style="text;html=1;strokeColor=none;fillColor=none;align=center;verticalAlign=middle;whiteSpace=wrap;rounded=0;rotation=-30;" vertex="1" parent="1">
          <mxGeometry x="250" y="180" width="60" height="30" as="geometry" />
        </mxCell>
        <mxCell id="OHqKvSYNsAmwV80baFoG-30" value="Give Feedback" style="ellipse;whiteSpace=wrap;html=1;" vertex="1" parent="1">
          <mxGeometry x="330" y="420" width="120" height="80" as="geometry" />
        </mxCell>
        <mxCell id="OHqKvSYNsAmwV80baFoG-31" value="Register" style="ellipse;whiteSpace=wrap;html=1;" vertex="1" parent="1">
          <mxGeometry x="120" y="680" width="120" height="80" as="geometry" />
        </mxCell>
        <mxCell id="OHqKvSYNsAmwV80baFoG-32" value="Login" style="ellipse;whiteSpace=wrap;html=1;" vertex="1" parent="1">
          <mxGeometry x="120" y="480" width="120" height="80" as="geometry" />
        </mxCell>
        <mxCell id="OHqKvSYNsAmwV80baFoG-35" value="" style="endArrow=none;dashed=1;html=1;rounded=0;exitX=0.5;exitY=1;exitDx=0;exitDy=0;entryX=0.5;entryY=0;entryDx=0;entryDy=0;" edge="1" parent="1" source="OHqKvSYNsAmwV80baFoG-32" target="OHqKvSYNsAmwV80baFoG-31">
          <mxGeometry width="50" height="50" relative="1" as="geometry">
            <mxPoint x="120" y="510" as="sourcePoint" />
            <mxPoint x="170" y="460" as="targetPoint" />
          </mxGeometry>
        </mxCell>
        <mxCell id="OHqKvSYNsAmwV80baFoG-36" value="Exclude" style="text;html=1;strokeColor=none;fillColor=none;align=center;verticalAlign=middle;whiteSpace=wrap;rounded=0;rotation=90;" vertex="1" parent="1">
          <mxGeometry x="170" y="610" width="60" height="30" as="geometry" />
        </mxCell>
        <mxCell id="OHqKvSYNsAmwV80baFoG-38" value="" style="endArrow=none;html=1;rounded=0;" edge="1" parent="1" source="OHqKvSYNsAmwV80baFoG-1" target="OHqKvSYNsAmwV80baFoG-32">
          <mxGeometry width="50" height="50" relative="1" as="geometry">
            <mxPoint x="120" y="510" as="sourcePoint" />
            <mxPoint x="170" y="460" as="targetPoint" />
          </mxGeometry>
        </mxCell>
        <mxCell id="OHqKvSYNsAmwV80baFoG-39" value="" style="endArrow=none;dashed=1;html=1;rounded=0;entryX=0;entryY=0.5;entryDx=0;entryDy=0;exitX=1;exitY=0;exitDx=0;exitDy=0;" edge="1" parent="1" source="OHqKvSYNsAmwV80baFoG-32" target="OHqKvSYNsAmwV80baFoG-30">
          <mxGeometry width="50" height="50" relative="1" as="geometry">
            <mxPoint x="30" y="570" as="sourcePoint" />
            <mxPoint x="80" y="520" as="targetPoint" />
          </mxGeometry>
        </mxCell>
        <mxCell id="OHqKvSYNsAmwV80baFoG-40" value="" style="endArrow=none;dashed=1;html=1;rounded=0;entryX=0;entryY=0.5;entryDx=0;entryDy=0;exitX=1;exitY=1;exitDx=0;exitDy=0;" edge="1" parent="1" source="OHqKvSYNsAmwV80baFoG-32" target="OHqKvSYNsAmwV80baFoG-12">
          <mxGeometry width="50" height="50" relative="1" as="geometry">
            <mxPoint x="30" y="570" as="sourcePoint" />
            <mxPoint x="80" y="520" as="targetPoint" />
          </mxGeometry>
        </mxCell>
        <mxCell id="OHqKvSYNsAmwV80baFoG-41" value="Include" style="text;html=1;strokeColor=none;fillColor=none;align=center;verticalAlign=middle;whiteSpace=wrap;rounded=0;rotation=-15;" vertex="1" parent="1">
          <mxGeometry x="250" y="480" width="60" height="30" as="geometry" />
        </mxCell>
        <mxCell id="OHqKvSYNsAmwV80baFoG-42" value="Include" style="text;html=1;strokeColor=none;fillColor=none;align=center;verticalAlign=middle;whiteSpace=wrap;rounded=0;rotation=30;" vertex="1" parent="1">
          <mxGeometry x="250" y="540" width="60" height="30" as="geometry" />
        </mxCell>
        <mxCell id="OHqKvSYNsAmwV80baFoG-43" value="data validation" style="ellipse;whiteSpace=wrap;html=1;" vertex="1" parent="1">
          <mxGeometry x="280" y="680" width="120" height="80" as="geometry" />
        </mxCell>
        <mxCell id="OHqKvSYNsAmwV80baFoG-44" value="" style="endArrow=none;dashed=1;html=1;rounded=0;entryX=0;entryY=0.5;entryDx=0;entryDy=0;exitX=1;exitY=0.5;exitDx=0;exitDy=0;" edge="1" parent="1" source="OHqKvSYNsAmwV80baFoG-31" target="OHqKvSYNsAmwV80baFoG-43">
          <mxGeometry width="50" height="50" relative="1" as="geometry">
            <mxPoint x="20" y="860" as="sourcePoint" />
            <mxPoint x="70" y="810" as="targetPoint" />
          </mxGeometry>
        </mxCell>
        <mxCell id="OHqKvSYNsAmwV80baFoG-45" value="include" style="text;html=1;strokeColor=none;fillColor=none;align=center;verticalAlign=middle;whiteSpace=wrap;rounded=0;" vertex="1" parent="1">
          <mxGeometry x="230" y="690" width="60" height="30" as="geometry" />
        </mxCell>
        <mxCell id="OHqKvSYNsAmwV80baFoG-47" value="System" style="rounded=0;whiteSpace=wrap;html=1;" vertex="1" parent="1">
          <mxGeometry x="300" y="896" width="120" height="60" as="geometry" />
        </mxCell>
        <mxCell id="OHqKvSYNsAmwV80baFoG-52" value="" style="rounded=0;whiteSpace=wrap;html=1;" vertex="1" parent="1">
          <mxGeometry x="75" y="976" width="15" height="230" as="geometry" />
        </mxCell>
        <mxCell id="OHqKvSYNsAmwV80baFoG-53" value="" style="rounded=0;whiteSpace=wrap;html=1;" vertex="1" parent="1">
          <mxGeometry x="346.5" y="986" width="15" height="230" as="geometry" />
        </mxCell>
        <mxCell id="OHqKvSYNsAmwV80baFoG-54" value="" style="rounded=0;whiteSpace=wrap;html=1;" vertex="1" parent="1">
          <mxGeometry x="622.5" y="976" width="15" height="230" as="geometry" />
        </mxCell>
        <mxCell id="OHqKvSYNsAmwV80baFoG-55" value="Client" style="shape=umlActor;verticalLabelPosition=bottom;verticalAlign=top;html=1;outlineConnect=0;" vertex="1" parent="1">
          <mxGeometry x="67.5" y="876" width="30" height="60" as="geometry" />
        </mxCell>
        <mxCell id="OHqKvSYNsAmwV80baFoG-60" value="" style="endArrow=classic;html=1;rounded=0;" edge="1" parent="1">
          <mxGeometry width="50" height="50" relative="1" as="geometry">
            <mxPoint x="130" y="1016" as="sourcePoint" />
            <mxPoint x="300" y="1016" as="targetPoint" />
          </mxGeometry>
        </mxCell>
        <mxCell id="OHqKvSYNsAmwV80baFoG-61" value="Opening platforms" style="text;html=1;strokeColor=none;fillColor=none;align=center;verticalAlign=middle;whiteSpace=wrap;rounded=0;" vertex="1" parent="1">
          <mxGeometry x="145" y="986" width="130" height="30" as="geometry" />
        </mxCell>
        <mxCell id="OHqKvSYNsAmwV80baFoG-62" value="" style="endArrow=classic;html=1;rounded=0;" edge="1" parent="1">
          <mxGeometry width="50" height="50" relative="1" as="geometry">
            <mxPoint x="150" y="1056" as="sourcePoint" />
            <mxPoint x="330" y="1056" as="targetPoint" />
          </mxGeometry>
        </mxCell>
        <mxCell id="OHqKvSYNsAmwV80baFoG-63" value="Filling in form" style="text;html=1;strokeColor=none;fillColor=none;align=center;verticalAlign=middle;whiteSpace=wrap;rounded=0;" vertex="1" parent="1">
          <mxGeometry x="170" y="1026" width="130" height="30" as="geometry" />
        </mxCell>
        <mxCell id="OHqKvSYNsAmwV80baFoG-65" value="" style="endArrow=classic;html=1;rounded=0;" edge="1" parent="1">
          <mxGeometry width="50" height="50" relative="1" as="geometry">
            <mxPoint x="410" y="1055.0900000000001" as="sourcePoint" />
            <mxPoint x="590" y="1055.0900000000001" as="targetPoint" />
          </mxGeometry>
        </mxCell>
        <mxCell id="OHqKvSYNsAmwV80baFoG-66" value="Sending notifications" style="text;html=1;strokeColor=none;fillColor=none;align=center;verticalAlign=middle;whiteSpace=wrap;rounded=0;" vertex="1" parent="1">
          <mxGeometry x="440" y="1025.0900000000001" width="120" height="30" as="geometry" />
        </mxCell>
        <mxCell id="OHqKvSYNsAmwV80baFoG-69" value="Authorities" style="shape=umlActor;verticalLabelPosition=bottom;verticalAlign=top;html=1;outlineConnect=0;" vertex="1" parent="1">
          <mxGeometry x="615" y="886" width="35" height="60" as="geometry" />
        </mxCell>
        <mxCell id="OHqKvSYNsAmwV80baFoG-72" value="" style="endArrow=classic;html=1;rounded=0;" edge="1" parent="1">
          <mxGeometry width="50" height="50" relative="1" as="geometry">
            <mxPoint x="590" y="1116" as="sourcePoint" />
            <mxPoint x="410" y="1116" as="targetPoint" />
          </mxGeometry>
        </mxCell>
        <mxCell id="OHqKvSYNsAmwV80baFoG-73" value="" style="endArrow=classic;html=1;rounded=0;" edge="1" parent="1">
          <mxGeometry width="50" height="50" relative="1" as="geometry">
            <mxPoint x="570" y="1156" as="sourcePoint" />
            <mxPoint x="390" y="1156" as="targetPoint" />
          </mxGeometry>
        </mxCell>
        <mxCell id="OHqKvSYNsAmwV80baFoG-74" value="" style="endArrow=classic;html=1;rounded=0;" edge="1" parent="1">
          <mxGeometry width="50" height="50" relative="1" as="geometry">
            <mxPoint x="310" y="1156" as="sourcePoint" />
            <mxPoint x="130" y="1156" as="targetPoint" />
          </mxGeometry>
        </mxCell>
        <mxCell id="OHqKvSYNsAmwV80baFoG-75" value="Reviewing reports" style="text;html=1;strokeColor=none;fillColor=none;align=center;verticalAlign=middle;whiteSpace=wrap;rounded=0;" vertex="1" parent="1">
          <mxGeometry x="450" y="1086" width="105" height="30" as="geometry" />
        </mxCell>
        <mxCell id="OHqKvSYNsAmwV80baFoG-76" value="determining further actions" style="text;html=1;strokeColor=none;fillColor=none;align=center;verticalAlign=middle;whiteSpace=wrap;rounded=0;" vertex="1" parent="1">
          <mxGeometry x="400" y="1126" width="160" height="30" as="geometry" />
        </mxCell>
        <mxCell id="OHqKvSYNsAmwV80baFoG-77" value="receiving report data" style="text;html=1;strokeColor=none;fillColor=none;align=center;verticalAlign=middle;whiteSpace=wrap;rounded=0;" vertex="1" parent="1">
          <mxGeometry x="135" y="1126" width="170" height="30" as="geometry" />
        </mxCell>
        <mxCell id="OHqKvSYNsAmwV80baFoG-78" value="Sequance&amp;nbsp; Review Report and Manage Data" style="rounded=0;whiteSpace=wrap;html=1;" vertex="1" parent="1">
          <mxGeometry x="210" y="830" width="320" height="30" as="geometry" />
        </mxCell>
      </root>
    </mxGraphModel>
  </diagram>
</mxfile>
